<svg width="191" height="30" viewBox="0 0 191 30" fill="none" xmlns="http://www.w3.org/2000/svg">
<path fill-rule="evenodd" clip-rule="evenodd" d="M23.3572 20.0948C22.5821 25.1121 18.2156 30 9.89603 30C2.86832 30 -0.464675 27.2069 0.0520681 23.8966C0.413788 21.7241 2.5066 19.1638 5.99462 18.6983C6.58887 22.2931 8.63001 24.3362 11.5238 24.3362C12.5056 24.3362 14.4175 24.1552 14.4692 21.931C14.4937 20.6325 13.4051 19.6821 11.3352 18.3103L10.9812 18.0776C10.731 17.9148 10.4766 17.7512 10.2198 17.5861C6.76371 15.3639 2.89251 12.8749 3.56592 8.63793C4.41855 3.10345 9.40512 0 17.0271 0C21.8328 0 25.76 1.62931 25.1658 5.50862C24.7782 7.83621 22.4271 9.33621 19.3266 9.75C19.1457 6.93103 17.1563 5.32759 15.296 5.32759C13.3582 5.32759 12.3764 6.12931 12.1955 7.31897C12.0251 8.53747 13.2083 9.41151 16.1341 10.8716L16.8781 11.2385C21.2167 13.3864 24.045 15.7602 23.3572 20.0948ZM42.9676 24.8534C42.9676 28.1897 37.2834 30 33.4854 30C27.3103 30 24.3132 25.4741 24.4682 21.2586L24.4763 21.0522C24.7798 14.2419 28.7254 7.47414 38.3686 7.47414C42.0891 7.47414 45.2413 9.75 45.2413 13.1121C45.2413 18.9667 40.874 21.3192 32.942 20.8998L32.4519 20.8707C32.3744 22.4741 32.8911 24.5431 34.9839 24.5431C36.807 23.883 38.106 23.0773 39.5694 22.1695L39.5694 22.1695C40.0555 21.868 40.5597 21.5552 41.1073 21.2328C41.6499 21.6724 42.9676 23.3793 42.9676 24.8534ZM32.9686 17.1724C33.4078 14.1724 35.1389 12.2069 37.0509 12.2069C38.4038 12.2069 38.7849 12.9851 38.7832 13.7161L38.782 13.7845C38.8078 16.0086 37.3868 16.7069 32.9686 17.1724ZM54.1551 27.8534C53.535 28.3966 51.2872 29.4828 49.3235 29.4828C46.3264 29.4828 45.6288 27.5431 45.6288 25.7069C45.6288 24.6025 46.1409 22.5874 46.6948 20.4078C47.3472 17.8408 48.0575 15.0456 48.0575 13.2414C48.0575 11.3678 47.8406 10.8516 47.6031 10.2865C47.5284 10.1087 47.4517 9.92607 47.379 9.69481L47.3341 9.5431C49.1168 8.43103 50.8221 7.88793 52.1656 7.88793C54.491 7.88793 55.9379 9.23276 55.9379 11.069C55.9379 11.6653 55.8502 12.1564 55.675 12.9467L55.5503 13.5H55.8087C57.7206 9.69828 59.8134 7.42241 62.5522 7.42241C65.4459 7.42241 66.8928 9.43966 66.8928 11.7931C66.8928 16.2672 63.8182 17.0948 60.5885 17.0948H60.4594L60.4576 17.0843C60.3026 16.1273 60.0694 14.6879 59.4259 14.1983C57.3589 13.7328 53.9226 19.1379 53.7417 24.181L53.7266 24.5785C53.6781 26.0905 53.7735 26.7076 54.1551 27.8534ZM74.7741 29.4828C81.8277 29.4828 89.0879 18.5172 90.3023 11.6379C90.7157 9.2069 88.9587 7.42241 85.0832 7.42241C83.9718 7.42241 82.9367 7.62076 82.212 7.75964L82.2119 7.75965L82.2117 7.75969C81.993 7.8016 81.8025 7.83809 81.6468 7.86207L81.7677 8.24966C82.0277 9.1093 82.2514 10.1262 81.9662 11.8497L81.8551 12.4748C81.4483 14.6564 80.0907 20.7691 77.6162 22.1638C77.3218 22.2308 77.367 21.8745 77.4934 20.8793L77.4935 20.8791L77.4935 20.879L77.4935 20.8788C77.6111 19.9527 77.7989 18.4734 77.8488 16.2672L77.8566 15.8679C77.9246 10.9776 76.9071 7.42241 73.6115 7.42241C71.3378 7.42241 68.8574 8.87069 67.3847 10.0603C67.497 10.1921 67.608 10.3192 67.7179 10.4448C68.3413 11.158 68.9245 11.8252 69.4517 13.0345C69.9029 14.0815 69.9471 15.585 69.9978 17.3118C70.011 17.7603 70.0246 18.2238 70.0459 18.6983C70.0459 25.6034 71.312 29.4828 74.7741 29.4828ZM108.363 24.8534C108.363 28.1897 102.679 30 98.8807 30C92.7056 30 89.7085 25.4741 89.8635 21.2586L89.8716 21.0522C90.1752 14.2419 94.1207 7.47414 103.764 7.47414C107.484 7.47414 110.637 9.75 110.637 13.1121C110.637 18.9667 106.269 21.3192 98.3373 20.8998L97.8472 20.8707C97.7697 22.4741 98.2865 24.5431 100.379 24.5431C102.202 23.883 103.501 23.0773 104.965 22.1695L104.965 22.1694L104.966 22.1684C105.452 21.8672 105.956 21.5548 106.503 21.2328C107.045 21.6724 108.363 23.3793 108.363 24.8534ZM98.364 17.1724C98.8032 14.1724 100.534 12.2069 102.446 12.2069C103.799 12.2069 104.18 12.9851 104.179 13.7161L104.177 13.7845C104.203 16.0086 102.782 16.7069 98.364 17.1724ZM127.997 19.6034C124.224 26.2241 120.736 29.8965 118.101 29.8965C114.024 29.8965 112.975 22.1223 112.74 13.0485L112.727 12.4914C112.572 8.56034 112.391 5.53448 109.704 3.36207C110.867 1.93966 112.856 0.155172 116.163 0.155172C121.291 0.155172 121.303 5.25602 120.915 10.2798L120.762 12.1293C120.452 16.2672 120.116 21 120.866 21.2069C123.567 18.7759 125.27 15.6786 127.114 10.774L127.351 10.1379C127.339 8.81008 127.286 7.49272 127.235 6.24728L127.235 6.24688C127.173 4.72718 127.116 3.31458 127.144 2.12069C128.528 0.760188 130.686 0.5408 131.971 0.519205L132.208 0.517241C135.257 0.517241 137.944 3.56897 134.766 10.5L134.42 14.4504C134.216 16.859 133.998 21.2301 134.43 21.0776C137.221 18.6724 141.51 10.0345 141.639 6.12931C141.236 4.77802 140.833 3.77443 140.013 2.16236L139.778 1.7069C139.852 1.68118 139.957 1.64187 140.088 1.59274L140.089 1.59237L140.089 1.59218L140.09 1.59193C141.012 1.24542 143.224 0.413793 145.101 0.413793C148.098 0.413793 150.294 1.99138 150.165 5.12069C149.958 11.6121 139.236 29.8965 131.64 29.8965C129.056 29.8965 127.997 24.931 127.997 19.6034ZM156.341 30C160.139 30 165.823 28.1897 165.823 24.8534C165.823 23.3793 164.505 21.6724 163.963 21.2328C163.415 21.5551 162.911 21.8678 162.425 22.1692L162.425 22.1695C160.961 23.0772 159.662 23.883 157.839 24.5431C155.746 24.5431 155.23 22.4741 155.307 20.8707L155.797 20.8998C163.729 21.3192 168.096 18.9667 168.096 13.1121C168.096 9.75 164.944 7.47414 161.224 7.47414C151.581 7.47414 147.635 14.2419 147.331 21.0522L147.323 21.2586C147.168 25.4741 150.165 30 156.341 30ZM159.906 12.2069C157.994 12.2069 156.263 14.1724 155.824 17.1724C160.242 16.7069 161.663 16.0086 161.637 13.7845L161.638 13.7161C161.64 12.9851 161.259 12.2069 159.906 12.2069ZM171.248 29.4828C173.289 29.4828 175.098 28.5 176.08 27.8534L176.008 27.4281C175.973 27.2243 175.939 27.0389 175.909 26.8664C175.727 25.8535 175.626 25.2883 175.666 24.0776C175.716 22.5385 176.563 18.6644 177.445 14.6308C178.4 10.2597 179.397 5.70132 179.464 3.72414C179.542 1.37069 178.353 0 175.77 0C174.09 0 171.481 1.11207 170.344 2.01724L170.403 2.14136C170.478 2.29064 170.554 2.42783 170.631 2.56462L170.631 2.56502C171.052 3.31684 171.466 4.05682 171.403 6.72414C171.366 8.09726 170.504 11.784 169.607 15.6179C168.646 19.727 167.646 24.0051 167.579 25.7845C167.528 27.3103 168.148 29.4828 171.248 29.4828ZM178.973 25.7845C178.922 27.3103 179.542 29.4828 182.642 29.4828C184.683 29.4828 186.492 28.5 187.474 27.8534C187.411 27.4726 187.354 27.1518 187.303 26.8664C187.121 25.8535 187.02 25.2883 187.06 24.0776C187.11 22.5385 187.957 18.6644 188.839 14.6308C189.795 10.2597 190.791 5.70132 190.859 3.72414C190.936 1.37069 189.748 0 187.164 0C185.484 0 182.875 1.11207 181.738 2.01724C181.83 2.21648 181.928 2.39106 182.025 2.56501C182.425 3.2798 182.819 3.98388 182.803 6.34379L182.797 6.72414C182.76 8.09726 181.898 11.784 181.001 15.6179C180.041 19.727 179.04 24.0051 178.973 25.7845Z" fill="#45479D"/>
</svg>
