<?xml version="1.0" encoding="UTF-8"?>
<svg width="30px" height="25px" viewBox="0 0 30 25" version="1.1" xmlns="http://www.w3.org/2000/svg" xmlns:xlink="http://www.w3.org/1999/xlink">
    <!-- Generator: Sketch 58 (84663) - https://sketch.com -->
    <title>Group 9</title>
    <desc>Created with Sketch.</desc>
    <g id="Page-1" stroke="none" stroke-width="1" fill="none" fill-rule="evenodd" stroke-linecap="round" stroke-linejoin="round">
        <g id="SW04---About-Us-COMP" transform="translate(-84.000000, -1444.000000)" stroke="#FFFFFF" stroke-width="2">
            <g id="Group-9" transform="translate(85.000000, 1445.000000)">
                <path d="M14.0001556,17.1270267 L14.0001556,2.67229333" id="Stroke-1"></path>
                <path d="M14.0001556,22.41281 C12.7619333,21.2091433 10.0972667,20.3742433 7.00015556,20.3742433 C4.6536,20.3742433 2.55593333,20.8526433 1.13882222,21.6085767 C0.622377778,21.88381 0.000155555556,21.51121 0.000155555556,20.9331433 L0.000155555556,3.26454333 C0.000155555556,2.85054333 0.163488889,2.45034333 0.466822222,2.16361 C1.83804444,0.86411 4.24837778,7.66666667e-05 7.00015556,7.66666667e-05 C8.27648889,7.66666667e-05 9.47893333,0.186376667 10.5382667,0.515276667" id="Stroke-3"></path>
                <path d="M14.0001556,2.67267667 L14.0001556,17.12741" id="Stroke-5"></path>
                <path d="M14.0001556,22.41281 C15.2376,21.2091433 17.9030444,20.3742433 21.0001556,20.3742433 C23.3459333,20.3742433 25.4436,20.8526433 26.8614889,21.6085767 C27.3771556,21.88381 28.0001556,21.51121 28.0001556,20.9331433 L28.0001556,3.26454333 C28.0001556,2.85054333 27.8368222,2.45034333 27.5334889,2.16361 C26.1622667,0.86411 23.7519333,7.66666667e-05 21.0001556,7.66666667e-05 C17.9030444,7.66666667e-05 15.2376,1.09487667 14.0001556,2.67267667" id="Stroke-7"></path>
            </g>
        </g>
    </g>
</svg>