<?xml version="1.0" encoding="UTF-8"?>
<svg width="27px" height="26px" viewBox="0 0 27 26" version="1.1" xmlns="http://www.w3.org/2000/svg" xmlns:xlink="http://www.w3.org/1999/xlink">
    <!-- Generator: Sketch 58 (84663) - https://sketch.com -->
    <title>Group 19</title>
    <desc>Created with Sketch.</desc>
    <g id="Page-1" stroke="none" stroke-width="1" fill="none" fill-rule="evenodd" stroke-linecap="round" stroke-linejoin="round">
        <g id="SW02---Course-COMP" transform="translate(-85.000000, -667.000000)" stroke="#FFFFFF" stroke-width="2">
            <g id="Group-22" transform="translate(74.000000, 651.000000)">
                <g id="Group-19" transform="translate(12.000000, 17.000000)">
                    <path d="M21.7472917,2.53854167 L22.9167361,2.53854167 C24.0674306,2.53854167 25.0000694,3.47118056 25.0000694,4.621875 L25.0000694,21.4246528 C25.0000694,22.5753472 24.0674306,23.5079861 22.9167361,23.5079861 L2.08340278,23.5079861 C0.932708333,23.5079861 6.94444444e-05,22.5753472 6.94444444e-05,21.4246528 L6.94444444e-05,4.621875 C6.94444444e-05,3.47118056 0.932708333,2.53854167 2.08340278,2.53854167 L17.3889583,2.53854167" id="Stroke-1"></path>
                    <path d="M17.8315278,0.000138888889 L17.8356944,5.23" id="Stroke-3"></path>
                    <path d="M7.16868056,0.000138888889 L7.16451389,5.23" id="Stroke-5"></path>
                    <path d="M7.16458333,11.541875 L7.16458333,11.5099306" id="Stroke-7"></path>
                    <path d="M7.16458333,16.9600694 L7.16458333,16.9288194" id="Stroke-9"></path>
                    <path d="M12.5160417,11.541875 L12.4834028,11.5099306" id="Stroke-11"></path>
                    <path d="M12.5160417,16.9600694 L12.4834028,16.9288194" id="Stroke-13"></path>
                    <path d="M17.8355556,11.541875 L17.8355556,11.5099306" id="Stroke-15"></path>
                    <path d="M17.8355556,16.9600694 L17.8355556,16.9288194" id="Stroke-17"></path>
                </g>
            </g>
        </g>
    </g>
</svg>