<?xml version="1.0" encoding="UTF-8"?>
<svg width="38px" height="38px" viewBox="0 0 38 38" version="1.1" xmlns="http://www.w3.org/2000/svg" xmlns:xlink="http://www.w3.org/1999/xlink">
    <!-- Generator: Sketch 60.1 (88133) - https://sketch.com -->
    <title>Group 7</title>
    <desc>Created with Sketch.</desc>
    <g id="Page-1" stroke="none" stroke-width="1" fill="none" fill-rule="evenodd" stroke-linecap="round" stroke-linejoin="round">
        <g id="SW02---Course-COMP" transform="translate(-74.000000, -1752.000000)" stroke="#141B4D" stroke-width="2">
            <g id="Group-7" transform="translate(75.000000, 1753.000000)">
                <path d="M0.000398467433,17.9997 C0.000398467433,20.3127 2.27365517,22.1537 3.10445977,24.1647 C3.96514943,26.2487 3.68721839,29.1567 5.25120307,30.7287 C6.81718008,32.2987 9.71403831,32.0197 11.7900536,32.8837 C13.7933487,33.7177 15.6282912,35.9997 17.931433,35.9997 C20.2345747,35.9997 22.0685211,33.7177 24.0718161,32.8837 C26.1478314,32.0197 29.0456858,32.2987 30.6106667,30.7287 C32.1746513,29.1567 31.8967203,26.2487 32.75741,24.1647 C33.5882146,22.1537 35.8624674,20.3127 35.8624674,17.9997 C35.8624674,15.6877 33.5882146,13.8467 32.75741,11.8357 C31.8967203,9.7507 32.1746513,6.8427 30.6106667,5.2717 C29.0446897,3.7007 26.1478314,3.9797 24.0718161,3.1157 C22.0685211,2.2827 20.2345747,-0.0003 17.931433,-0.0003 C15.6282912,-0.0003 13.7933487,2.2827 11.7900536,3.1157 C9.71403831,3.9807 6.81618391,3.7017 5.25120307,5.2717 C3.68721839,6.8427 3.96514943,9.7517 3.10445977,11.8357 C2.27365517,13.8467 0.000398467433,15.6877 0.000398467433,17.9997 Z" id="Stroke-1"></path>
                <line x1="16.3836858" y1="21.1452" x2="24.622" y2="12.8762" id="Stroke-3"></line>
                <line x1="16.3836858" y1="21.1452" x2="11.8321916" y2="16.9802" id="Stroke-5"></line>
            </g>
        </g>
    </g>
</svg>