<?xml version="1.0" encoding="UTF-8"?>
<svg width="27px" height="25px" viewBox="0 0 27 25" version="1.1" xmlns="http://www.w3.org/2000/svg" xmlns:xlink="http://www.w3.org/1999/xlink">
    <!-- Generator: Sketch 58 (84663) - https://sketch.com -->
    <title>Group 11</title>
    <desc>Created with Sketch.</desc>
    <g id="Page-1" stroke="none" stroke-width="1" fill="none" fill-rule="evenodd" stroke-linecap="round" stroke-linejoin="round">
        <g id="SW02---Course-COMP" transform="translate(-86.000000, -900.000000)" stroke="#FFFFFF" stroke-width="2">
            <g id="Group-11" transform="translate(87.000000, 901.000000)">
                <path d="M23.6179936,10.4408482 L0.774491567,10.4408482 C0.346664187,10.4408482 6.20039698e-05,10.094246 6.20039698e-05,9.66641865 L6.20039698e-05,5.29513889 C6.20039698e-05,4.86731151 0.346664187,4.52070933 0.774491567,4.52070933 L23.6179936,4.52070933 C24.0458209,4.52070933 24.3924231,4.86731151 24.3924231,5.29513889 L24.3924231,9.66641865 C24.3924231,10.094246 24.0458209,10.4408482 23.6179936,10.4408482 Z" id="Stroke-1"></path>
                <path d="M22.2216642,13.6624504 L22.2216642,19.6111111 C22.2216642,21.1078869 21.0082465,22.3213046 19.5114707,22.3213046 L4.88101438,22.3213046 C3.38423859,22.3213046 2.17082093,21.1078869 2.17082093,19.6111111 L2.17082093,10.4407242" id="Stroke-3"></path>
                <path d="M12.1963046,3.37574405 C12.1963046,1.51128472 13.7079613,0.000248015873 15.5718006,0.000248015873 C17.4362599,0.000248015873 18.9479167,1.51128472 18.9479167,3.37574405" id="Stroke-5"></path>
                <path d="M12.1963046,10.8555928 L12.1963046,22.3213666" id="Stroke-7"></path>
                <path d="M5.44487847,3.37574405 C5.44487847,1.51128472 6.95653522,0.000248015873 8.8203745,0.000248015873 C10.6848338,0.000248015873 12.1964906,1.51128472 12.1964906,3.37574405" id="Stroke-9"></path>
            </g>
        </g>
    </g>
</svg>