<svg width="304" height="49" viewBox="0 0 304 49" fill="none" xmlns="http://www.w3.org/2000/svg">
<path fill-rule="evenodd" clip-rule="evenodd" d="M236.726 14.1998C237.655 11.8035 237.995 9.33067 237.736 6.782C237.413 3.60635 235.086 1.98894 232.474 1.31453C229.757 0.613221 227.146 1.28777 224.565 2.10207C223.872 2.32126 223.174 2.54469 222.505 2.82929C221.748 3.15184 221.722 3.31014 222.09 4.06851C222.952 5.84834 223.898 7.5946 224.326 9.55113C224.415 9.95991 224.573 10.3884 224.525 10.787C224.196 13.5435 223.398 16.1892 222.348 18.7412C221.444 20.9386 220.459 23.1167 219.318 25.1987C218.032 27.5487 216.542 29.7889 215.116 32.0603C214.83 32.5151 214.453 32.9226 214.066 33.2999C213.868 33.4935 213.558 33.5724 213.299 33.7032C213.183 33.4421 213.055 33.1857 212.956 32.9179C212.917 32.8137 212.944 32.684 212.949 32.5662C213.134 28.5375 213.273 24.506 213.523 20.4814C213.639 18.6291 213.935 16.8015 214.628 15.0295C215.834 11.9472 216.619 8.7963 215.587 5.45131C214.89 3.18894 213.346 1.80543 211.149 1.35219C208.561 0.818389 206.028 1.4237 203.646 2.50334C202.466 3.03786 201.731 3.86419 201.88 5.3774C202.041 7.0128 201.917 8.67637 201.917 10.3276C201.982 10.3276 202.045 10.3278 202.11 10.3278C202.11 11.8379 202.054 13.3506 202.127 14.8572C202.188 16.0844 202.076 17.257 201.593 18.3865C201.417 18.7974 201.196 19.1909 201.044 19.6095C199.677 23.3438 198.01 26.9301 195.671 30.1597C194.777 31.3958 193.72 32.5189 192.697 33.6573C192.234 34.1729 191.919 34.0875 191.673 33.4332C191.534 33.0631 191.407 32.6561 191.414 32.2684C191.466 29.6058 191.526 26.9426 191.639 24.282C191.84 19.546 192.131 14.8133 192.281 10.0759C192.341 8.21577 192.062 6.36996 191.244 4.63418C190.235 2.49244 188.679 1.06646 186.285 0.812867C185.077 0.684725 183.824 0.697469 182.619 0.849539C179.544 1.23708 177.156 2.90632 175.12 5.14873C174.656 5.66115 174.882 6.07035 175.317 6.48012C177.094 8.15687 178.214 10.2424 178.554 12.6238C178.978 15.6082 179.273 18.6224 179.414 21.6335C179.682 27.3607 179.786 33.0927 180.997 38.7341C181.527 41.1964 182.173 43.6082 183.628 45.69C185.047 47.7202 186.54 48.4997 189.03 47.9435C190.964 47.5115 192.418 46.2319 193.795 44.8965C197.143 41.648 199.664 37.7811 202.013 33.788C202.228 33.4226 202.432 33.0462 202.688 32.7112C202.914 32.4154 203.145 32.4998 203.241 32.8423C203.29 33.0189 203.268 33.2164 203.272 33.4046C203.354 37.5067 203.77 41.5517 205.474 45.3487C206.066 46.6733 206.891 47.8615 208.483 48.0565C209.759 48.2128 211.007 47.979 212.218 47.4972C214.421 46.6203 216.307 45.2568 218.069 43.7168C222.386 39.9414 225.78 35.3948 228.825 30.5754C229.97 28.7633 231.08 26.9208 232.075 25.0233C233.156 22.961 234.134 20.8401 235.062 18.7034C235.699 17.2379 236.147 15.6919 236.726 14.1998Z" fill="white"/>
<path fill-rule="evenodd" clip-rule="evenodd" d="M20.0627 10.1944C21.5809 8.8215 23.4332 8.50759 25.2894 9.10002C28.1395 10.0093 29.6407 12.1819 30.1327 15.0806C30.2498 15.7707 30.4326 15.961 31.1109 15.8172C31.8023 15.6705 32.5011 15.5262 33.1658 15.293C35.9578 14.3136 38.3466 12.8579 39.1989 9.76678C39.7981 7.59361 39.4202 5.58936 37.8904 3.89803C36.1922 2.0208 33.9184 1.24288 31.5145 0.844159C28.5489 0.352265 25.5721 0.316017 22.5672 0.631769C19.5084 0.952902 16.5807 1.64487 13.8389 3.03517C9.24942 5.36225 6.39388 9.00048 5.61286 14.1536C5.18273 16.9914 5.89952 19.5204 7.70789 21.7545C9.39034 23.8329 11.4882 25.426 13.6629 26.9305C15.6978 28.3384 17.7705 29.6924 19.7826 31.1319C20.7784 31.8442 21.6544 32.7044 22.2447 33.8226C23.3078 35.8367 22.2855 38.4875 20.0497 38.9576C16.7478 39.6519 14.0991 38.9757 11.9488 36.4082C10.7119 34.9311 10.0235 33.1879 9.60371 31.3294C9.41312 30.4862 9.20018 30.2918 8.39086 30.5125C7.48547 30.7593 6.55065 30.9924 5.72436 31.4176C3.15731 32.7385 1.31286 34.7006 0.373935 37.5152C-0.395626 39.8221 0.0448308 41.8393 1.49071 43.6773C3.44949 46.1672 6.28961 47.1238 9.2098 47.743C11.157 48.1559 13.1847 48.1883 15.1763 48.3911C15.1798 48.3339 15.1835 48.2768 15.187 48.2196C15.9646 48.2196 16.744 48.254 17.5195 48.2138C21.8001 47.9919 25.7817 46.8313 29.2782 44.2832C33.4738 41.2258 35.9589 37.1231 36.5822 31.9439C36.799 30.1426 36.7002 28.3388 35.9753 26.6554C34.8621 24.0698 32.88 22.1952 30.5516 20.7541C28.0933 19.2323 25.479 17.9652 22.9784 16.5082C21.9097 15.8854 20.8835 15.1445 19.9694 14.3128C18.7114 13.1681 18.7908 11.3445 20.0627 10.1944Z" fill="white"/>
<path fill-rule="evenodd" clip-rule="evenodd" d="M58.0952 26.7011C56.4332 27.1942 54.6956 27.4377 52.9853 27.7586C52.4625 27.8565 52.1522 27.5956 52.27 27.0248C52.7689 24.6119 53.6878 22.3877 55.75 20.9199C56.5317 20.3635 57.5965 20.0485 58.566 19.9482C60.2435 19.7743 61.1492 20.8025 61.1351 22.5587C61.1172 24.7615 60.2686 26.0563 58.0952 26.7011ZM63.7348 12.7409C61.7027 12.2379 59.6191 12.3651 57.5424 12.5319C54.1885 12.8011 51.0817 13.8212 48.2554 15.6187C44.4972 18.0086 41.9932 21.4384 40.4872 25.582C39.3532 28.7024 38.734 31.9367 38.8123 35.2847C38.8822 38.2699 39.8572 40.9516 41.6807 43.2613C44.1529 46.3925 47.4864 47.9739 51.4586 48.224C55.0458 48.4498 58.5065 47.8789 61.8306 46.5276C63.6356 45.7938 65.3384 44.8507 66.5497 43.2757C67.5949 41.9167 68.2174 40.3786 67.481 38.6588C67.0125 37.565 66.4484 36.5033 65.8338 35.4834C65.133 34.321 64.8982 34.2989 63.7587 34.9914C61.2263 36.5302 58.7841 38.2227 55.979 39.2787C54.8497 39.7039 53.2115 39.3707 52.4843 38.2952C51.7509 37.2105 51.2721 36.0034 51.2624 34.6594C51.2571 33.9145 51.4398 33.7438 52.1808 33.746C53.1471 33.7489 54.1134 33.7468 55.0797 33.7468C55.0797 33.7421 55.0797 33.7373 55.0797 33.7328C55.9752 33.7328 56.8717 33.7587 57.7662 33.7278C60.3887 33.6371 62.9146 33.0438 65.2647 31.9081C68.4058 30.3904 70.376 27.8924 71.0096 24.4069C71.4437 22.0185 71.5457 19.6485 70.3296 17.4414C68.8929 14.834 66.5278 13.4325 63.7348 12.7409Z" fill="white"/>
<path fill-rule="evenodd" clip-rule="evenodd" d="M165.279 22.6193C165.298 24.7415 164.02 26.0881 162.096 26.699C160.425 27.2299 158.652 27.4424 156.917 27.7679C156.459 27.8541 156.056 27.7015 156.247 27.1196C156.763 25.5378 157.137 23.9071 158.168 22.5203C159.204 21.1264 160.477 20.1896 162.213 19.9458C163.557 19.7567 165.499 20.5533 165.279 22.6193ZM167.887 12.8056C162.982 11.7849 158.191 12.4923 153.694 14.8362C148.207 17.6963 145.209 22.4429 143.711 28.2377C143.214 30.1638 143.009 32.1918 142.899 34.186C142.736 37.15 143.428 39.9667 145.123 42.441C147.655 46.1383 151.246 47.9739 155.685 48.2329C159.178 48.4367 162.542 47.8506 165.782 46.5622C167.298 45.9595 168.723 45.1824 169.916 44.0342C171.308 42.6935 172.077 41.1204 171.695 39.1459C171.385 37.5523 170.516 36.2411 169.52 34.9972C169.111 34.4868 168.743 34.3938 168.143 34.7632C165.479 36.4032 162.912 38.2159 159.935 39.3031C158.895 39.6828 157.65 39.4335 156.745 38.5278C155.665 37.4495 155.541 36.0657 155.433 34.6708C155.378 33.949 155.602 33.7403 156.329 33.7434C157.247 33.7475 158.167 33.7444 159.085 33.7444C161.969 33.7869 164.82 33.6255 167.572 32.607C169.184 32.0106 170.676 31.2694 171.953 30.1033C173.203 28.9635 174.047 27.5939 174.618 26.0025C175.376 23.8826 175.683 21.7024 175.157 19.5375C174.233 15.7467 171.506 13.5588 167.887 12.8056Z" fill="white"/>
<path fill-rule="evenodd" clip-rule="evenodd" d="M252.642 26.7145C251.033 27.2687 249.293 27.4485 247.605 27.7586C247.036 27.8629 246.821 27.5986 246.937 27.0135C247.383 24.7694 248.237 22.7224 249.996 21.1812C251.064 20.2456 252.358 19.7492 253.775 19.996C255.367 20.2728 255.862 20.988 255.848 22.6033C255.868 24.9933 254.643 26.0258 252.642 26.7145ZM258.334 12.7558C253.481 11.8622 248.777 12.522 244.342 14.8126C240.106 17.001 237.273 20.4408 235.451 24.7681C234.165 27.8231 233.595 31.0413 233.494 34.3456C233.414 36.9726 233.941 39.4687 235.295 41.7346C237.747 45.8389 241.45 47.903 246.165 48.2233C249.702 48.4634 253.117 47.8741 256.4 46.5581C258.162 45.8519 259.793 44.9195 261.063 43.4557C262.04 42.3296 262.525 41.0254 262.337 39.5422C262.111 37.7513 261.218 36.2618 260.06 34.9152C259.717 34.5171 259.344 34.4283 258.877 34.7177C257.838 35.3634 256.812 36.0389 255.734 36.6176C253.872 37.6181 251.98 38.5628 250.087 39.5054C249.876 39.6105 249.566 39.6151 249.33 39.555C248.351 39.3055 247.52 38.8538 246.909 37.9738C246.224 36.9882 246.066 35.8922 245.974 34.7603C245.91 33.977 246.146 33.7472 246.946 33.7478C247.864 33.7485 248.784 33.7479 249.702 33.7479C252.533 33.7591 255.329 33.615 258.055 32.652C260.707 31.7158 262.918 30.3034 264.394 27.8655C265.829 25.4951 266.045 22.8822 265.805 20.2112C265.733 19.4063 265.536 18.5607 265.178 17.8421C263.767 15.0067 261.351 13.3114 258.334 12.7558Z" fill="white"/>
<path fill-rule="evenodd" clip-rule="evenodd" d="M131.062 12.8652C130.528 12.9498 130.334 13.2602 130.416 13.7624C130.458 14.0167 130.502 14.2734 130.578 14.519C131.018 15.9424 131.066 17.3877 130.768 18.834C130.311 21.0589 129.815 23.2761 129.328 25.495C128.751 28.1251 127.738 30.6013 126.429 32.9466C125.957 33.7932 125.224 34.507 124.558 35.2347C124.391 35.4168 124.021 35.4185 123.744 35.5029C123.682 35.2442 123.546 34.9791 123.569 34.7278C123.801 32.1839 124.058 29.6425 124.219 28.0137C124.235 23.4296 124.271 19.7846 122.923 16.2652C121.931 13.6733 119.614 12.1484 116.809 12.4256C113.717 12.7312 111.096 14.0976 108.645 15.8622C107.831 16.4486 107.798 16.757 108.488 17.5062C110.643 19.8467 111.734 22.5716 111.748 25.7479C111.761 28.4916 111.793 31.2404 111.975 33.9768C112.199 37.3666 112.506 40.7559 114.056 43.8939C115.326 46.4663 117.568 47.6971 120.449 47.3262C122.58 47.0519 124.557 46.358 126.396 45.2696C129.857 43.2214 132.637 40.4364 135.085 37.3252C137.748 33.9407 140.009 30.2993 141.588 26.2986C142.446 24.1245 143.222 21.8983 143.779 19.6346C144.703 15.876 142.632 13.7065 139.424 12.834C136.656 12.0811 133.849 12.4234 131.062 12.8652Z" fill="white"/>
<mask id="mask0" mask-type="alpha" maskUnits="userSpaceOnUse" x="73" y="0" width="231" height="48">
<path fill-rule="evenodd" clip-rule="evenodd" d="M73.0793 0.413644H303.907V47.312H73.0793V0.413644Z" fill="white"/>
</mask>
<g mask="url(#mask0)">
<path fill-rule="evenodd" clip-rule="evenodd" d="M93.992 14.5201C92.0438 16.3186 90.6428 18.5061 89.452 20.8461C89.3224 21.1007 89.1527 21.335 89.0015 21.5787C88.9149 21.5531 88.8284 21.5272 88.7418 21.5014C88.7418 21.1939 88.7061 20.8811 88.7493 20.5797C88.8421 19.9287 88.9991 19.2868 89.0874 18.6352C89.2313 17.5736 89.0078 16.5712 88.4634 15.6541C87.1785 13.4895 85.1248 12.8514 82.7868 12.9903C80.5684 13.1221 78.5306 13.9046 76.6246 15.0441C75.7185 15.5858 75.6999 15.7402 75.9887 16.7327C76.3276 17.8975 76.6202 19.0918 76.7645 20.2934C77.018 22.4024 76.4911 24.4576 76.0778 26.5047C75.6319 28.7141 75.1003 30.9065 74.6023 33.1053C74.4154 33.9306 74.2654 34.768 74.0159 35.5743C73.2997 37.8889 72.944 40.244 73.1268 42.6645C73.3216 45.2423 74.9363 46.8916 77.5101 47.2144C80.5126 47.5911 83.1701 46.6283 85.7009 45.1517C86.1342 44.8988 86.1695 44.553 86.0906 44.0699C85.8835 42.8 85.6585 41.5192 85.6244 40.2379C85.5353 36.9013 86.2999 33.7272 87.5755 30.6464C88.4019 28.6505 89.3958 26.7581 90.8071 25.1359C91.4828 24.3594 92.364 23.7004 93.2699 23.2006C94.2264 22.6726 94.9416 23.0655 95.2843 24.1206C95.5741 25.0129 95.8018 25.9262 96.0342 26.836C96.1876 27.4364 96.5316 27.7295 97.1581 27.6179C98.7296 27.3377 100.343 27.19 101.858 26.7238C103.377 26.2563 104.568 25.1798 105.247 23.706C106.496 20.9947 106.665 18.2474 105.311 15.4988C104.641 14.14 103.565 13.1728 102.17 12.7135C99.1211 11.7106 96.3669 12.3278 93.992 14.5201Z" fill="white"/>
<path fill-rule="evenodd" clip-rule="evenodd" d="M302.422 2.01715C301.086 0.574263 299.332 0.310611 297.558 0.448506C294.887 0.656125 292.459 1.67855 290.212 3.13259C289.699 3.46469 289.63 3.80654 289.903 4.36927C290.718 6.0535 291.25 7.80012 291.207 9.7219C291.173 11.3552 290.977 12.9392 290.618 14.5326C289.951 17.4869 289.428 20.4733 288.79 23.4343C288.042 26.8995 287.235 30.3515 286.456 33.8099C286.276 34.6114 286.052 35.4082 285.944 36.2199C285.674 38.2423 285.404 40.2678 285.246 42.3007C285.168 43.2889 285.493 44.239 286.077 45.089C287.461 47.1017 289.518 47.4208 291.705 47.2846C293.96 47.1441 295.986 46.2542 297.907 45.1078C298.399 44.815 298.429 44.4624 298.359 43.9253C298.126 42.1138 297.747 40.2763 297.86 38.4763C298.009 36.1205 298.518 33.78 298.973 31.4528C299.547 28.5284 300.245 25.6286 300.849 22.7099C301.506 19.5353 302.147 16.3569 302.736 13.1694C303.174 10.7956 303.519 8.40449 303.907 6.02104C303.842 6.01201 303.778 6.00283 303.714 5.9938C303.76 4.51337 303.476 3.15432 302.422 2.01715Z" fill="white"/>
<path fill-rule="evenodd" clip-rule="evenodd" d="M279.233 0.445542C276.564 0.648079 274.131 1.67248 271.889 3.13442C271.384 3.46413 271.301 3.80371 271.581 4.37054C272.421 6.07411 273.02 7.86336 272.857 9.79558C272.726 11.3573 272.563 12.9241 272.279 14.4637C271.728 17.4418 271.109 20.4083 270.467 23.3686C269.746 26.6941 268.933 29.9998 268.229 33.3286C267.679 35.9216 267.235 38.5369 266.743 41.1423C266.678 44.0775 267.762 46.1298 270.183 46.9006C271.27 47.2467 272.503 47.2969 273.656 47.2345C275.767 47.1206 277.646 46.2207 279.459 45.1842C280.028 44.86 280.137 44.4902 280.014 43.8549C279.598 41.7113 279.185 39.571 279.629 37.3563C280.378 33.6277 281.022 29.8778 281.757 26.1462C282.379 22.9919 283.081 19.8534 283.725 16.703C284.133 14.7004 284.578 12.7 284.856 10.6779C285.118 8.75523 285.234 6.80776 285.314 4.86707C285.359 3.7721 284.834 2.83238 284.096 2.01743C282.776 0.557608 280.999 0.311317 279.233 0.445542Z" fill="white"/>
</g>
</svg>
