<?xml version="1.0" encoding="UTF-8"?>
<svg width="28px" height="28px" viewBox="0 0 28 28" version="1.1" xmlns="http://www.w3.org/2000/svg" xmlns:xlink="http://www.w3.org/1999/xlink">
    <!-- Generator: Sketch 58 (84663) - https://sketch.com -->
    <title>Group 9</title>
    <desc>Created with Sketch.</desc>
    <g id="Page-1" stroke="none" stroke-width="1" fill="none" fill-rule="evenodd" stroke-linecap="round" stroke-linejoin="round">
        <g id="SW02---Course-COMP" transform="translate(-556.000000, -2634.000000)" stroke="#45479D" stroke-width="2">
            <g id="Group-15" transform="translate(-85.000000, 2385.000000)">
                <g id="Group-16" transform="translate(630.000000, 126.000000)">
                    <g id="Group-12" transform="translate(0.000000, 107.000000)">
                        <g id="Group-9" transform="translate(12.000000, 17.000000)">
                            <path d="M2.92788889,4.78038889 C1.0985,7.02072222 0,9.88144444 0,13 C0,20.1796111 5.82111111,26 13,26 C20.1803333,26 26,20.1796111 26,13 C26,5.82038889 20.1803333,0 13,0 C10.1703333,0 7.55227778,0.904222222 5.41811111,2.43894444" id="Stroke-1"></path>
                            <path d="M12.7914222,0.0294666667 C9.78625556,3.1343 7.77631111,8.24041111 7.77631111,12.9998556 C7.77631111,17.7723 10.0932,23.7566333 12.7914222,25.9998556" id="Stroke-3"></path>
                            <path d="M13.2089389,0.0294666667 C16.2148278,3.1343 18.2247722,8.24041111 18.2247722,12.9998556 C18.2247722,17.7723 15.9071611,23.7566333 13.2089389,25.9998556" id="Stroke-5"></path>
                            <path d="M1.35084444,12.9998556 L24.6497333,12.9998556" id="Stroke-7"></path>
                        </g>
                    </g>
                </g>
            </g>
        </g>
    </g>
</svg>