<?xml version="1.0" encoding="utf-8"?>
<!-- Generator: Adobe Illustrator 24.2.1, SVG Export Plug-In . SVG Version: 6.00 Build 0)  -->
<svg version="1.1" id="Layer_1" xmlns="http://www.w3.org/2000/svg" xmlns:xlink="http://www.w3.org/1999/xlink" x="0px" y="0px"
	 viewBox="0 0 15 13" style="enable-background:new 0 0 15 13;" xml:space="preserve">
<style type="text/css">
	.st0{fill:#FFFFFF;}
</style>
<desc>Created with Sketch.</desc>
<g id="Symbols">
	<g id="Main-Menu" transform="translate(-843.000000, -14.000000)">
		<g id="right-arrow" transform="translate(843.000000, 14.000000)">
			<path id="Path" class="st0" d="M14.8,5.6L9.3,0.2C9.2,0.1,9,0,8.8,0C8.5,0,8.3,0.1,8.2,0.2L7.7,0.7C7.5,0.9,7.5,1.1,7.5,1.3
				c0,0.2,0.1,0.4,0.2,0.6L10.9,5h-10C0.4,5,0,5.4,0,5.8v0.7C0,7,0.4,7.3,0.8,7.3h10.1l-3.2,3.2c-0.2,0.2-0.2,0.4-0.2,0.6
				c0,0.2,0.1,0.4,0.2,0.6l0.5,0.5c0.2,0.2,0.4,0.2,0.6,0.2c0.2,0,0.4-0.1,0.6-0.2l5.4-5.4C14.9,6.6,15,6.4,15,6.2
				C15,6,14.9,5.8,14.8,5.6z"/>
		</g>
	</g>
</g>
</svg>
