<?xml version="1.0" encoding="UTF-8"?>
<svg width="28px" height="27px" viewBox="0 0 28 27" version="1.1" xmlns="http://www.w3.org/2000/svg" xmlns:xlink="http://www.w3.org/1999/xlink">
    <!-- Generator: Sketch 58 (84663) - https://sketch.com -->
    <title>Group 5</title>
    <desc>Created with Sketch.</desc>
    <g id="Page-1" stroke="none" stroke-width="1" fill="none" fill-rule="evenodd" stroke-linecap="round" stroke-linejoin="round">
        <g id="SW04---About-Us-COMP" transform="translate(-85.000000, -1264.000000)" stroke="#FFFFFF" stroke-width="2">
            <g id="Group-5" transform="translate(86.000000, 1265.000000)">
                <path d="M7.89500541,11.3697857 L7.89500541,24.4697857" id="Stroke-1"></path>
                <path d="M11.8140486,24.4571429 L21.4649676,24.4571429 C22.9835081,24.4571429 24.274373,23.3321429 24.5069676,21.8064286 L25.964373,12.25 C26.2447514,10.4085714 24.8435622,8.74714286 23.0109135,8.74714286 L16.0302649,8.74714286 L16.0302649,3.07714286 C16.0302649,1.37714286 14.6740486,-7.10542736e-15 13.0023189,-7.10542736e-15 L12.9573459,-7.10542736e-15 C12.1548595,-7.10542736e-15 11.4711297,0.592142857 11.3432378,1.39714286 C10.8878865,4.20285714 10.0341027,6.925 8.80788649,9.48071429 L7.90702162,11.3571429 L2.62199459,11.3571429 C1.56231892,11.3571429 0.702210811,12.2307143 0.702210811,13.3085714 L0.702210811,22.5057143 C0.702210811,23.5828571 1.56231892,24.4571429 2.62199459,24.4571429 L7.89507568,24.4571429" id="Stroke-3"></path>
            </g>
        </g>
    </g>
</svg>